<svg width="173" height="33" fill="none" xmlns="http://www.w3.org/2000/svg"><path d="M4.19039 32.6066l2.4018-6.8784H16.8126l2.3891 6.8784h4.1904L13.9765 6.61607H9.41559L0 32.6066h4.19039zm3.5516-10.1779L11.6002 11.337h.2044l3.8582 11.0917H7.74199zM26.8638 32.6066h3.8199V20.7027c0-2.5508 1.9802-4.3909 4.6886-4.3909.7921 0 1.6864.1396 1.993.2284v-3.6295c-.3832-.0508-1.137-.0889-1.6225-.0889-2.2996 0-4.267 1.2945-4.9824 3.3884h-.2044v-3.0965h-3.6922v19.4929zM48.2342 33c5.5318 0 9.1473-4.0229 9.1473-10.051 0-6.0662-3.6155-10.0891-9.1473-10.0891-5.5319 0-9.1474 4.0229-9.1474 10.0891 0 6.0281 3.6155 10.051 9.1474 10.051zm.0127-3.1854c-3.6155 0-5.3018-3.1346-5.3018-6.8783 0-3.7311 1.6863-6.9037 5.3018-6.9037 3.59 0 5.2763 3.1726 5.2763 6.9037 0 3.7437-1.6863 6.8783-5.2763 6.8783zM74.0759 24.5226c.0128 3.3123-2.4656 4.8859-4.6119 4.8859-2.3635 0-3.9988-1.7005-3.9988-4.3529V13.1137h-3.8199v12.3988c0 4.8351 2.6701 7.3479 6.4389 7.3479 2.9511 0 4.9569-1.5483 5.864-3.6295h.2044v3.3757h3.756V13.1137h-3.8327v11.4089zM86.8611 21.0327c0-3.1092 1.9163-4.8859 4.5736-4.8859 2.5935 0 4.1649 1.6878 4.1649 4.5179v11.9419h3.8199V20.2078c0-4.8225-2.6701-7.3479-6.6817-7.3479-2.9511 0-4.8802 1.3579-5.7873 3.4265h-.2427v-3.1727h-3.6666v19.4929h3.8199V21.0327zM111.888 32.9873c3.578 0 4.983-2.1701 5.673-3.4138h.319v3.0331h3.731V6.61607h-3.82v9.65763h-.23c-.69-1.2056-1.993-3.4138-5.647-3.4138-4.74 0-8.227 3.7184-8.227 10.0383 0 6.3073 3.436 10.0891 8.201 10.0891zm.844-3.2361c-3.411 0-5.187-2.9823-5.187-6.8911 0-3.8706 1.737-6.7768 5.187-6.7768 3.334 0 5.123 2.7031 5.123 6.7768 0 4.0991-1.827 6.8911-5.123 6.8911zM126.6 1.0491h2.743v7.73285h1.056V1.0491h2.742V.118446H126.6V1.0491zM135.64 4.87322c0-1.1337.728-1.77669 1.72-1.77669.946 0 1.516.59223 1.516 1.6244v4.06102h1.005v-4.1287c0-1.67094-.894-2.45353-2.231-2.45353-1.031 0-1.618.42725-1.925 1.09986h-.085V.118446h-1.005V8.78195h1.005V4.87322zM144.463 8.91732c1.328 0 2.299-.65992 2.606-1.64133l-.971-.27073c-.256.67683-.848 1.01525-1.635 1.01525-1.18 0-1.993-.75721-2.04-2.14895h4.748v-.42303c0-2.41969-1.448-3.24881-2.811-3.24881-1.771 0-2.947 1.38751-2.947 3.38418 0 1.99667 1.159 3.33342 3.05 3.33342zm-2.04-3.90873c.068-1.01103.788-1.91206 1.937-1.91206 1.091 0 1.789.8122 1.789 1.91206h-3.726zM157.932.118446V5.77003c0 1.26907-.877 2.1828-2.333 2.1828-1.457 0-2.334-.91373-2.334-2.1828V.118446h-1.056V5.85463c0 1.7767 1.337 3.07961 3.39 3.07961 2.052 0 3.389-1.30291 3.389-3.07961V.118446h-1.056zM161.284 8.84964c.421 0 .766-.34265.766-.76145 0-.41879-.345-.76144-.766-.76144-.422 0-.767.34265-.767.76144 0 .4188.345.76145.767.76145zM168.76 2.28432h1.022C169.735.977182 168.521 0 166.835 0c-1.67 0-2.981.964492-2.981 2.41969 0 1.16754.851 1.8613 2.214 2.25048l1.073.30458c.92.25381 1.738.57531 1.738 1.43827 0 .94758-.92 1.57365-2.129 1.57365-1.04 0-1.959-.45687-2.045-1.43828h-1.09c.102 1.42136 1.261 2.38585 3.135 2.38585 2.01 0 3.151-1.09986 3.151-2.5043 0-1.6244-1.55-2.14895-2.453-2.38584l-.886-.2369c-.647-.1692-1.686-.50762-1.686-1.43827 0-.82913.766-1.43828 1.925-1.43828 1.056 0 1.856.49917 1.959 1.35367zM172.233 8.84964c.422 0 .767-.34265.767-.76145 0-.41879-.345-.76144-.767-.76144-.421 0-.766.34265-.766.76144 0 .4188.345.76145.766.76145z" fill="#fff"/></svg>