<svg width="21" height="19" fill="none" xmlns="http://www.w3.org/2000/svg"><path d="M19.3764 9.78586c2.1648-2.24248 2.1648-5.88373 0-8.104-2.1649-2.242479-5.68-2.242479-7.8449 0L10.4812 2.792 9.43098 1.70406C7.26614-.560619 3.75096-.560619 1.60755 1.68186.557285 2.76979 0 4.21297 0 5.74496c0 1.53199.578719 2.97517 1.60755 4.0631L10.4812 19l8.8952-9.21414zM1.37178 5.74496c0-1.15454.42868-2.22027 1.22174-3.01957.81449-.84371 1.86476-1.26556 2.91503-1.26556 1.05027 0 2.10054.42185 2.91503 1.26556l2.05762 2.10926 2.0577-2.13147c1.6076-1.6652 4.244-1.6652 5.8301 0 .7716.7993 1.2217 1.86503 1.2217 3.01958 0 1.15454-.4287 2.22027-1.2217 3.01957l-7.8878 8.19277-7.88768-8.17057c-.77163-.8215-1.22174-1.88723-1.22174-3.01957z" fill="#000"/></svg>